<svg width="26" height="28" viewBox="0 0 26 28" fill="none" xmlns="http://www.w3.org/2000/svg">
<g filter="url(#filter0_n_3732_18874)">
<g filter="url(#filter1_n_3732_18874)">
<path d="M4.69057 19.1785C-1.72626 13.9021 0.700508 8.79844 0.137401 1.77228C0.111485 1.44892 0.388151 1.17988 0.706463 1.24242C4.53174 1.99396 10.9904 5.00994 12.3761 12.3985C13.0019 15.7352 12.6841 20.3092 12.6782 25.9785C12.678 26.1413 12.469 26.2088 12.3721 26.0782C11.2058 24.5071 10.7978 24.2003 4.69057 19.1785Z" fill="url(#paint0_linear_3732_18874)"/>
<path d="M4.3002 18.6228C-1.20083 14.0758 0.636847 7.70171 0.41443 2.0131C0.402052 1.69652 0.675663 1.44104 0.985968 1.50493C4.57188 2.24327 10.8809 5.3609 12.1631 12.1973C12.7404 15.2755 12.6989 20.5912 12.7075 25.8863C12.7078 26.0528 12.4885 26.1207 12.3906 25.986C11.1389 24.2623 9.54813 22.9607 4.3002 18.6228Z" fill="url(#paint1_linear_3732_18874)"/>
<g opacity="0.6">
<path d="M12.7089 25.9934L12.6935 19.9214C12.6915 19.1229 12.5205 18.3246 12.1331 17.6264C7.54543 9.35833 0.415517 11.1409 0.415517 11.1409C0.415517 11.1409 0.51841 15.6781 4.21805 18.6042C6.33343 20.2773 6.96123 20.9869 9.07616 22.6606C10.7611 23.994 11.856 25.3752 12.3695 26.0976C12.4687 26.2371 12.7093 26.1646 12.7089 25.9934Z" fill="url(#paint2_linear_3732_18874)"/>
<path d="M12.7089 25.9934L12.6935 19.9214C12.6915 19.1229 12.5205 18.3246 12.1331 17.6264C7.54543 9.35833 0.415517 11.1409 0.415517 11.1409C0.415517 11.1409 0.51841 15.6781 4.21805 18.6042C6.33343 20.2773 6.96123 20.9869 9.07616 22.6606C10.7611 23.994 11.856 25.3752 12.3695 26.0976C12.4687 26.2371 12.7093 26.1646 12.7089 25.9934Z" fill="url(#paint3_radial_3732_18874)"/>
</g>
<path d="M12.4867 18.4679C10.4896 14.1254 6.13585 10.3606 1.17066 11.0572C1.08759 11.0678 0.999959 11.0453 0.91861 11.058C0.999982 11.0454 1.08776 11.0683 1.17086 11.0579C6.04638 10.4944 10.4253 14.2435 12.2125 18.598C12.32 18.837 12.6014 19.437 12.6014 19.437L12.5236 18.9319C12.5236 18.9319 12.6054 18.7057 12.4867 18.4679Z" fill="url(#paint4_linear_3732_18874)"/>
<path d="M12.5704 18.4103C10.5733 14.0678 6.22061 10.3602 1.25542 11.0569C1.17235 11.0674 1.08472 11.0449 1.00337 11.0577C1.08474 11.045 1.17252 11.0679 1.25562 11.0575C6.23673 10.3724 10.509 14.186 12.2962 18.5404C12.4037 18.7794 12.6851 19.3794 12.6851 19.3794L12.6074 18.8744C12.6074 18.8744 12.6891 18.6481 12.5704 18.4103Z" fill="#3F3F3F"/>
</g>
<path d="M0.738281 1.24316C4.56352 1.99469 11.0224 5.01104 12.4082 12.3994C13.0328 15.7298 12.809 20.4832 12.8076 26.1494C12.8076 26.3152 12.5926 26.38 12.499 26.2432C12.4373 26.1528 12.3749 26.0681 12.3164 25.9844C12.0539 25.6234 11.6704 25.1313 11.1631 24.5771C10.2176 23.6187 8.60478 22.3017 4.75488 19.2109C-1.75778 13.9824 0.728541 8.80402 0.168945 1.77344C0.143244 1.45022 0.420159 1.18095 0.738281 1.24316Z" fill="url(#paint5_radial_3732_18874)"/>
<g filter="url(#filter2_n_3732_18874)">
<path d="M21.1039 19.0738C27.3741 14.2066 25.4701 9.11921 25.7136 1.62271C25.7217 1.37462 25.5504 1.1539 25.3022 1.15702C22.5132 1.19209 14.5101 4.98242 13.6219 12.4557C13.202 15.9889 13.054 20.3645 13.1895 26.0406C13.1932 26.1939 13.3828 26.2617 13.4811 26.144C14.885 24.4647 15.0913 23.7409 21.1039 19.0738Z" fill="url(#paint6_radial_3732_18874)"/>
<path d="M21.1039 19.0738C27.3741 14.2066 25.4701 9.11921 25.7136 1.62271C25.7217 1.37462 25.5504 1.1539 25.3022 1.15702C22.5132 1.19209 14.5101 4.98242 13.6219 12.4557C13.202 15.9889 13.054 20.3645 13.1895 26.0406C13.1932 26.1939 13.3828 26.2617 13.4811 26.144C14.885 24.4647 15.0913 23.7409 21.1039 19.0738Z" fill="url(#paint7_radial_3732_18874)"/>
<path d="M21.649 18.4344C27.1501 13.8873 25.3124 7.51323 25.5348 1.82462C25.5472 1.50805 25.2736 1.25256 24.9633 1.31646C21.3773 2.05479 15.0684 5.17242 13.7862 12.0088C13.2088 15.087 13.2503 20.4028 13.2417 25.6978C13.2414 25.8643 13.4608 25.9322 13.5586 25.7975C14.8103 24.0739 16.4011 22.7722 21.649 18.4344Z" fill="url(#paint8_linear_3732_18874)"/>
<path d="M13.2402 25.8636L13.2557 19.7339C13.2577 18.9354 13.4288 18.1371 13.8161 17.4389C18.4038 9.17083 25.5337 10.9534 25.5337 10.9534C25.5337 10.9534 25.3934 15.5944 21.6938 18.5205C19.5784 20.1936 19.1152 20.5536 16.9851 22.3542C15.2903 23.7868 14.1026 25.2518 13.5641 25.9691C13.4641 26.1023 13.2397 26.0302 13.2402 25.8636Z" fill="url(#paint9_linear_3732_18874)"/>
<path d="M13.2402 25.8636L13.2557 19.7339C13.2577 18.9354 13.4288 18.1371 13.8161 17.4389C18.4038 9.17083 25.5337 10.9534 25.5337 10.9534C25.5337 10.9534 25.3934 15.5944 21.6938 18.5205C19.5784 20.1936 19.1152 20.5536 16.9851 22.3542C15.2903 23.7868 14.1026 25.2518 13.5641 25.9691C13.4641 26.1023 13.2397 26.0302 13.2402 25.8636Z" fill="url(#paint10_radial_3732_18874)"/>
<path d="M13.4606 18.2804C15.4577 13.9379 19.8114 10.1731 24.7766 10.8697C24.8597 10.8803 24.9473 10.8578 25.0287 10.8705C24.9473 10.8579 24.8595 10.8808 24.7764 10.8704C19.9009 10.3069 15.522 14.056 13.7347 18.4105C13.6273 18.6495 13.3458 19.2495 13.3458 19.2495L13.4236 18.7444C13.4236 18.7444 13.3419 18.5182 13.4606 18.2804Z" fill="url(#paint11_linear_3732_18874)"/>
<path d="M13.4548 18.1716C15.4519 13.8291 19.7288 10.172 24.694 10.8687C24.7771 10.8792 24.8647 10.8567 24.9461 10.8695C24.8647 10.8568 24.7769 10.8797 24.6938 10.8693C19.7127 10.1842 15.4405 13.9978 13.6532 18.3522C13.5457 18.5912 13.2643 19.1912 13.2643 19.1912L13.2642 18.7384C13.2642 18.7384 13.3361 18.4094 13.4548 18.1716Z" fill="url(#paint12_linear_3732_18874)"/>
</g>
</g>
<defs>
<filter id="filter0_n_3732_18874" x="0.132812" y="1.15723" width="25.6719" height="25.1602" filterUnits="userSpaceOnUse" color-interpolation-filters="sRGB">
<feFlood flood-opacity="0" result="BackgroundImageFix"/>
<feBlend mode="normal" in="SourceGraphic" in2="BackgroundImageFix" result="shape"/>
<feTurbulence type="fractalNoise" baseFrequency="29.732398986816406 29.732398986816406" stitchTiles="stitch" numOctaves="3" result="noise" seed="6270" />
<feColorMatrix in="noise" type="luminanceToAlpha" result="alphaNoise" />
<feComponentTransfer in="alphaNoise" result="coloredNoise1">
<feFuncA type="discrete" tableValues="0 0 0 0 1 1 1 1 1 1 1 1 1 1 1 1 1 1 1 1 1 1 1 1 1 1 1 1 1 1 1 1 1 1 1 1 1 1 1 1 1 1 1 1 1 1 1 0 0 0 0 0 0 0 0 0 0 0 0 0 0 0 0 0 0 0 0 0 0 0 0 0 0 0 0 0 0 0 0 0 0 0 0 0 0 0 0 0 0 0 0 0 0 0 0 0 0 0 0 0 "/>
</feComponentTransfer>
<feComposite operator="in" in2="shape" in="coloredNoise1" result="noise1Clipped" />
<feFlood flood-color="rgba(0, 0, 0, 0.25)" result="color1Flood" />
<feComposite operator="in" in2="noise1Clipped" in="color1Flood" result="color1" />
<feMerge result="effect1_noise_3732_18874">
<feMergeNode in="shape" />
<feMergeNode in="color1" />
</feMerge>
</filter>
<filter id="filter1_n_3732_18874" x="0.132812" y="1.2334" width="12.6309" height="24.9375" filterUnits="userSpaceOnUse" color-interpolation-filters="sRGB">
<feFlood flood-opacity="0" result="BackgroundImageFix"/>
<feBlend mode="normal" in="SourceGraphic" in2="BackgroundImageFix" result="shape"/>
<feTurbulence type="fractalNoise" baseFrequency="19.821598052978516 19.821598052978516" stitchTiles="stitch" numOctaves="3" result="noise" seed="5092" />
<feColorMatrix in="noise" type="luminanceToAlpha" result="alphaNoise" />
<feComponentTransfer in="alphaNoise" result="coloredNoise1">
<feFuncA type="discrete" tableValues="1 1 1 1 1 1 1 1 1 1 1 1 1 1 1 1 1 1 1 1 1 1 1 1 1 1 1 1 1 1 1 1 1 1 1 1 1 1 1 1 1 1 1 1 1 1 1 1 1 1 1 0 0 0 0 0 0 0 0 0 0 0 0 0 0 0 0 0 0 0 0 0 0 0 0 0 0 0 0 0 0 0 0 0 0 0 0 0 0 0 0 0 0 0 0 0 0 0 0 0 "/>
</feComponentTransfer>
<feComposite operator="in" in2="shape" in="coloredNoise1" result="noise1Clipped" />
<feFlood flood-color="rgba(131, 123, 123, 0.25)" result="color1Flood" />
<feComposite operator="in" in2="noise1Clipped" in="color1Flood" result="color1" />
<feMerge result="effect1_noise_3732_18874">
<feMergeNode in="shape" />
<feMergeNode in="color1" />
</feMerge>
</filter>
<filter id="filter2_n_3732_18874" x="13.1406" y="1.15723" width="12.6641" height="25.0469" filterUnits="userSpaceOnUse" color-interpolation-filters="sRGB">
<feFlood flood-opacity="0" result="BackgroundImageFix"/>
<feBlend mode="normal" in="SourceGraphic" in2="BackgroundImageFix" result="shape"/>
<feTurbulence type="fractalNoise" baseFrequency="19.821598052978516 19.821598052978516" stitchTiles="stitch" numOctaves="3" result="noise" seed="5092" />
<feColorMatrix in="noise" type="luminanceToAlpha" result="alphaNoise" />
<feComponentTransfer in="alphaNoise" result="coloredNoise1">
<feFuncA type="discrete" tableValues="1 1 1 1 1 1 1 1 1 1 1 1 1 1 1 1 1 1 1 1 1 1 1 1 1 1 1 1 1 1 1 1 1 1 1 1 1 1 1 1 1 1 1 1 1 1 1 1 1 1 1 0 0 0 0 0 0 0 0 0 0 0 0 0 0 0 0 0 0 0 0 0 0 0 0 0 0 0 0 0 0 0 0 0 0 0 0 0 0 0 0 0 0 0 0 0 0 0 0 0 "/>
</feComponentTransfer>
<feComposite operator="in" in2="shape" in="coloredNoise1" result="noise1Clipped" />
<feFlood flood-color="rgba(131, 123, 123, 0.25)" result="color1Flood" />
<feComposite operator="in" in2="noise1Clipped" in="color1Flood" result="color1" />
<feMerge result="effect1_noise_3732_18874">
<feMergeNode in="shape" />
<feMergeNode in="color1" />
</feMerge>
</filter>
<linearGradient id="paint0_linear_3732_18874" x1="0.599417" y1="0.544196" x2="13.296" y2="27.1986" gradientUnits="userSpaceOnUse">
<stop stop-color="#F0F0F0"/>
<stop offset="1" stop-color="#686868"/>
</linearGradient>
<linearGradient id="paint1_linear_3732_18874" x1="-1.53244" y1="2.86658" x2="12.5226" y2="23.8388" gradientUnits="userSpaceOnUse">
<stop stop-color="#F2F2F2"/>
<stop offset="0.226398" stop-color="#D4D4D4"/>
<stop offset="0.730106" stop-color="#404040"/>
<stop offset="1" stop-color="#343434"/>
</linearGradient>
<linearGradient id="paint2_linear_3732_18874" x1="2.78724" y1="10.7168" x2="13.6021" y2="24.559" gradientUnits="userSpaceOnUse">
<stop stop-color="#D0CFCF"/>
<stop offset="0.270601" stop-color="#D6D6D6"/>
<stop offset="1" stop-color="#888888"/>
</linearGradient>
<radialGradient id="paint3_radial_3732_18874" cx="0" cy="0" r="1" gradientUnits="userSpaceOnUse" gradientTransform="translate(2.41904 11.6102) rotate(84.8056) scale(13.0022 9.70146)">
<stop stop-color="#DBDBDB"/>
<stop offset="1" stop-color="#CBCBCA" stop-opacity="0"/>
</radialGradient>
<linearGradient id="paint4_linear_3732_18874" x1="6.21567" y1="11.6459" x2="6.93311" y2="19.6593" gradientUnits="userSpaceOnUse">
<stop stop-color="#C8C8C8"/>
<stop offset="1" stop-color="#828282"/>
</linearGradient>
<radialGradient id="paint5_radial_3732_18874" cx="0" cy="0" r="1" gradientTransform="matrix(5.4655 12.6966 -10.7629 4.63295 1.07337 9.51001)" gradientUnits="userSpaceOnUse">
<stop stop-color="white"/>
<stop offset="1" stop-color="#A5A5A5" stop-opacity="0"/>
</radialGradient>
<radialGradient id="paint6_radial_3732_18874" cx="0" cy="0" r="1" gradientUnits="userSpaceOnUse" gradientTransform="translate(25.7296 7.4946) rotate(-152.21) scale(7.03341 31.3168)">
<stop stop-color="#3A3A3A"/>
<stop offset="1" stop-color="white"/>
</radialGradient>
<radialGradient id="paint7_radial_3732_18874" cx="0" cy="0" r="1" gradientUnits="userSpaceOnUse" gradientTransform="translate(16.985 5.30843) rotate(101.541) scale(16.3913 18.5545)">
<stop stop-color="white"/>
<stop offset="1" stop-color="#292929" stop-opacity="0.75"/>
</radialGradient>
<linearGradient id="paint8_linear_3732_18874" x1="27.4817" y1="2.6781" x2="10.3421" y2="21.8498" gradientUnits="userSpaceOnUse">
<stop stop-color="#696969"/>
<stop offset="0.269894" stop-color="#868685"/>
<stop offset="0.773602" stop-color="#BBB9B9"/>
</linearGradient>
<linearGradient id="paint9_linear_3732_18874" x1="23.162" y1="10.5293" x2="13.2858" y2="24.4563" gradientUnits="userSpaceOnUse">
<stop stop-color="#8A8888"/>
<stop offset="0.270601" stop-color="#666565"/>
<stop offset="1" stop-color="#424141"/>
</linearGradient>
<radialGradient id="paint10_radial_3732_18874" cx="0" cy="0" r="1" gradientUnits="userSpaceOnUse" gradientTransform="translate(23.5453 11.5291) rotate(95.3041) scale(12.8976 9.62342)">
<stop stop-color="#898887"/>
<stop offset="1" stop-color="#646060" stop-opacity="0"/>
</radialGradient>
<linearGradient id="paint11_linear_3732_18874" x1="13.2838" y1="19.0752" x2="19.3617" y2="10.614" gradientUnits="userSpaceOnUse">
<stop stop-color="#3B3B3B"/>
<stop offset="1" stop-color="#484848" stop-opacity="0"/>
</linearGradient>
<linearGradient id="paint12_linear_3732_18874" x1="13.3691" y1="18.571" x2="19.2785" y2="10.613" gradientUnits="userSpaceOnUse">
<stop stop-color="#DEDEDE"/>
<stop offset="1" stop-color="#999999"/>
</linearGradient>
</defs>
</svg>
