<svg width="11" height="10" viewBox="0 0 11 10" fill="none" xmlns="http://www.w3.org/2000/svg">
<rect x="0.5" width="10" height="10" rx="5" fill="#373737"/>
<path d="M7.38704 6.40746C8.55684 5.43273 8.16654 4.06648 8.21357 2.84695C8.21621 2.7785 8.15694 2.72331 8.08989 2.73729C7.32674 2.89642 5.98697 3.56506 5.71448 5.02963C5.59174 5.68935 5.60049 6.82837 5.59867 7.96322C5.59862 7.99927 5.64618 8.01391 5.66727 7.98468C5.93335 7.61591 6.27239 7.33624 7.38704 6.40746Z" fill="white"/>
<g opacity="0.51">
<path d="M3.68717 6.40746C2.51738 5.43273 2.90768 4.06648 2.86065 2.84695C2.85801 2.7785 2.91728 2.72331 2.98433 2.73729C3.74748 2.89642 5.08724 3.56506 5.35973 5.02963C5.48248 5.68935 5.47373 6.82837 5.47554 7.96322C5.4756 7.99927 5.42804 8.01391 5.40695 7.98468C5.14087 7.61591 4.80182 7.33624 3.68717 6.40746Z" fill="white"/>
</g>
</svg>
