<svg width="16" height="13" viewBox="0 0 16 13" fill="none" xmlns="http://www.w3.org/2000/svg">
<path d="M6.83598 0.154297L7.97074 4.277C8.10577 4.76762 8.48136 5.15568 8.9673 5.30668L12.8087 6.50029L8.9673 7.69391C8.48136 7.8449 8.10577 8.23297 7.97074 8.72358L6.83598 12.8463L5.70123 8.72358C5.56619 8.23297 5.1906 7.8449 4.70466 7.69391L0.863281 6.50029L4.70466 5.30668C5.1906 5.15568 5.56619 4.76762 5.70123 4.27701L6.83598 0.154297Z" fill="#6B2ED6" fill-opacity="0.66"/>
<path d="M6.83598 0.154297L7.97074 4.277C8.10577 4.76762 8.48136 5.15568 8.9673 5.30668L12.8087 6.50029L8.9673 7.69391C8.48136 7.8449 8.10577 8.23297 7.97074 8.72358L6.83598 12.8463L5.70123 8.72358C5.56619 8.23297 5.1906 7.8449 4.70466 7.69391L0.863281 6.50029L4.70466 5.30668C5.1906 5.15568 5.56619 4.76762 5.70123 4.27701L6.83598 0.154297Z" fill="#6B2ED6"/>
<path d="M13.8349 8.14453L14.1939 9.44883C14.2366 9.60404 14.3554 9.72681 14.5092 9.77458L15.7245 10.1522L14.5092 10.5298C14.3554 10.5776 14.2366 10.7004 14.1939 10.8556L13.8349 12.1599L13.4759 10.8556C13.4332 10.7004 13.3143 10.5776 13.1606 10.5298L11.9453 10.1522L13.1606 9.77458C13.3143 9.72681 13.4332 9.60404 13.4759 9.44883L13.8349 8.14453Z" fill="#6B2ED6" fill-opacity="0.66"/>
</svg>
