<svg width="95" height="47" viewBox="0 0 95 47" fill="none" xmlns="http://www.w3.org/2000/svg">
<rect y="-48" width="95" height="95" rx="47.5" fill="#1F211F"/>
<g filter="url(#filter0_n_4729_23886)">
<g filter="url(#filter1_n_4729_23886)">
<path d="M31.3943 13.2052C18.4358 2.54975 23.3365 -7.75694 22.1994 -21.946C22.147 -22.599 22.7057 -23.1423 23.3485 -23.016C31.0735 -21.4983 44.1165 -15.4077 46.915 -0.486789C48.1788 6.25163 47.537 15.4886 47.525 26.9376C47.5246 27.2662 47.1026 27.4027 46.9068 27.1388C44.5515 23.9662 43.7276 23.3466 31.3943 13.2052Z" fill="url(#paint0_linear_4729_23886)"/>
<path d="M30.6105 12.0828C19.5013 2.90015 23.2125 -9.97203 22.7633 -21.46C22.7383 -22.0993 23.2909 -22.6152 23.9175 -22.4862C31.1591 -20.9952 43.8999 -14.6992 46.4892 -0.893308C47.6551 5.32296 47.5714 16.0579 47.5887 26.751C47.5893 27.0872 47.1463 27.2243 46.9488 26.9523C44.421 23.4715 41.2085 20.8429 30.6105 12.0828Z" fill="url(#paint1_linear_4729_23886)"/>
<g opacity="0.6">
<path d="M47.5884 26.9687L47.5574 14.7064C47.5533 13.094 47.2079 11.4818 46.4256 10.0718C37.161 -6.62525 22.7624 -3.02541 22.7624 -3.02541C22.7624 -3.02541 22.9702 6.13724 30.4415 12.0465C34.7134 15.4253 35.9812 16.8583 40.2523 20.2382C43.655 22.931 45.866 25.7201 46.903 27.1791C47.1033 27.4608 47.5893 27.3143 47.5884 26.9687Z" fill="url(#paint2_linear_4729_23886)"/>
<path d="M47.5884 26.9687L47.5574 14.7064C47.5533 13.094 47.2079 11.4818 46.4256 10.0718C37.161 -6.62525 22.7624 -3.02541 22.7624 -3.02541C22.7624 -3.02541 22.9702 6.13724 30.4415 12.0465C34.7134 15.4253 35.9812 16.8583 40.2523 20.2382C43.655 22.931 45.866 25.7201 46.903 27.1791C47.1033 27.4608 47.5893 27.3143 47.5884 26.9687Z" fill="url(#paint3_radial_4729_23886)"/>
</g>
<path d="M47.138 11.77C43.105 3.0004 34.3128 -4.60241 24.2858 -3.19555C24.118 -3.17423 23.9411 -3.21968 23.7768 -3.19396C23.9411 -3.21947 24.1184 -3.17324 24.2862 -3.19424C34.1321 -4.33217 42.9751 3.23904 46.5844 12.0327C46.8015 12.5153 47.3698 13.727 47.3698 13.727L47.2127 12.707C47.2127 12.707 47.3778 12.2502 47.138 11.77Z" fill="url(#paint4_linear_4729_23886)"/>
<path d="M47.3093 11.6538C43.2763 2.88419 34.4862 -4.60313 24.4592 -3.19628C24.2914 -3.17496 24.1145 -3.2204 23.9502 -3.19468C24.1145 -3.22019 24.2918 -3.17396 24.4596 -3.19496C34.5187 -4.57862 43.1464 3.12282 46.7557 11.9164C46.9728 12.3991 47.5411 13.6107 47.5411 13.6107L47.384 12.5908C47.384 12.5908 47.5491 12.134 47.3093 11.6538Z" fill="#3F3F3F"/>
</g>
<path d="M22.2607 -21.9424C22.209 -22.5953 22.7684 -23.138 23.4111 -23.0117C31.1361 -21.4939 44.179 -15.4037 46.9775 -0.483398C48.2389 6.24215 47.7871 15.8416 47.7842 27.2842C47.7841 27.619 47.3491 27.7509 47.1602 27.4746C47.067 27.3383 46.975 27.2068 46.8857 27.0781C46.3576 26.3429 45.5564 25.3039 44.4775 24.124C42.5701 22.1871 39.3165 19.5303 31.5215 13.2725C18.3691 2.71356 23.3908 -7.74431 22.2607 -21.9424Z" fill="url(#paint5_radial_4729_23886)"/>
<g filter="url(#filter2_n_4729_23886)">
<path d="M64.5473 12.9941C77.2099 3.16506 73.3648 -7.10876 73.8566 -22.2476C73.8729 -22.7487 73.5269 -23.1944 73.0257 -23.1881C67.3934 -23.1173 51.2315 -15.4628 49.4379 -0.370802C48.5899 6.76433 48.2909 15.6008 48.5647 27.0633C48.5721 27.3729 48.9549 27.5099 49.1536 27.2722C51.9887 23.8809 52.4052 22.4192 64.5473 12.9941Z" fill="url(#paint6_radial_4729_23886)"/>
<path d="M64.5473 12.9941C77.2099 3.16506 73.3648 -7.10876 73.8566 -22.2476C73.8729 -22.7487 73.5269 -23.1944 73.0257 -23.1881C67.3934 -23.1173 51.2315 -15.4628 49.4379 -0.370802C48.5899 6.76433 48.2909 15.6008 48.5647 27.0633C48.5721 27.3729 48.9549 27.5099 49.1536 27.2722C51.9887 23.8809 52.4052 22.4192 64.5473 12.9941Z" fill="url(#paint7_radial_4729_23886)"/>
<path d="M65.6473 11.7029C76.7565 2.52027 73.0453 -10.3519 73.4945 -21.8399C73.5195 -22.4792 72.967 -22.9951 72.3403 -22.8661C65.0987 -21.375 52.358 -15.0791 49.7686 -1.27319C48.6027 4.94308 48.6864 15.678 48.6691 26.3711C48.6686 26.7074 49.1115 26.8445 49.309 26.5724C51.8368 23.0916 55.0493 20.463 65.6473 11.7029Z" fill="url(#paint8_linear_4729_23886)"/>
<path d="M48.6691 26.7064L48.7004 14.3275C48.7045 12.715 49.0499 11.1029 49.8322 9.69293C59.0968 -7.00415 73.4954 -3.40432 73.4954 -3.40432C73.4954 -3.40432 73.2122 5.96796 65.7409 11.8772C61.4689 15.256 60.5335 15.9829 56.2319 19.6192C52.8093 22.5123 50.4107 25.4708 49.3233 26.9194C49.1214 27.1884 48.6682 27.0427 48.6691 26.7064Z" fill="url(#paint9_linear_4729_23886)"/>
<path d="M48.6691 26.7064L48.7004 14.3275C48.7045 12.715 49.0499 11.1029 49.8322 9.69293C59.0968 -7.00415 73.4954 -3.40432 73.4954 -3.40432C73.4954 -3.40432 73.2122 5.96796 65.7409 11.8772C61.4689 15.256 60.5335 15.9829 56.2319 19.6192C52.8093 22.5123 50.4107 25.4708 49.3233 26.9194C49.1214 27.1884 48.6682 27.0427 48.6691 26.7064Z" fill="url(#paint10_radial_4729_23886)"/>
<path d="M49.112 11.392C53.145 2.62247 61.9372 -4.98034 71.9642 -3.57348C72.132 -3.55216 72.3089 -3.59761 72.4732 -3.57188C72.3089 -3.5974 72.1316 -3.55117 71.9638 -3.57217C62.1179 -4.7101 53.2749 2.86111 49.6656 11.6547C49.4485 12.1374 48.8802 13.349 48.8802 13.349L49.0373 12.3291C49.0373 12.3291 48.8722 11.8722 49.112 11.392Z" fill="url(#paint11_linear_4729_23886)"/>
<path d="M49.1023 11.1725C53.1353 2.40291 61.7724 -4.98245 71.7994 -3.5756C71.9672 -3.55428 72.1442 -3.59973 72.3084 -3.574C72.1441 -3.59952 71.9669 -3.55329 71.7991 -3.57429C61.7399 -4.95795 53.1122 2.7435 49.5029 11.5371C49.2859 12.0197 48.7176 13.2314 48.7176 13.2314L48.7174 12.317C48.7174 12.317 48.8625 11.6527 49.1023 11.1725Z" fill="url(#paint12_linear_4729_23886)"/>
</g>
</g>
<defs>
<filter id="filter0_n_4729_23886" x="22.1914" y="-23.1885" width="51.8477" height="50.8125" filterUnits="userSpaceOnUse" color-interpolation-filters="sRGB">
<feFlood flood-opacity="0" result="BackgroundImageFix"/>
<feBlend mode="normal" in="SourceGraphic" in2="BackgroundImageFix" result="shape"/>
<feTurbulence type="fractalNoise" baseFrequency="14.722935676574707 14.722935676574707" stitchTiles="stitch" numOctaves="3" result="noise" seed="6270" />
<feColorMatrix in="noise" type="luminanceToAlpha" result="alphaNoise" />
<feComponentTransfer in="alphaNoise" result="coloredNoise1">
<feFuncA type="discrete" tableValues="0 0 0 0 1 1 1 1 1 1 1 1 1 1 1 1 1 1 1 1 1 1 1 1 1 1 1 1 1 1 1 1 1 1 1 1 1 1 1 1 1 1 1 1 1 1 1 0 0 0 0 0 0 0 0 0 0 0 0 0 0 0 0 0 0 0 0 0 0 0 0 0 0 0 0 0 0 0 0 0 0 0 0 0 0 0 0 0 0 0 0 0 0 0 0 0 0 0 0 0 "/>
</feComponentTransfer>
<feComposite operator="in" in2="shape" in="coloredNoise1" result="noise1Clipped" />
<feFlood flood-color="rgba(0, 0, 0, 0.25)" result="color1Flood" />
<feComposite operator="in" in2="noise1Clipped" in="color1Flood" result="color1" />
<feMerge result="effect1_noise_4729_23886">
<feMergeNode in="shape" />
<feMergeNode in="color1" />
</feMerge>
</filter>
<filter id="filter1_n_4729_23886" x="22.1914" y="-23.0342" width="25.5078" height="50.3613" filterUnits="userSpaceOnUse" color-interpolation-filters="sRGB">
<feFlood flood-opacity="0" result="BackgroundImageFix"/>
<feBlend mode="normal" in="SourceGraphic" in2="BackgroundImageFix" result="shape"/>
<feTurbulence type="fractalNoise" baseFrequency="9.8152894973754883 9.8152894973754883" stitchTiles="stitch" numOctaves="3" result="noise" seed="5092" />
<feColorMatrix in="noise" type="luminanceToAlpha" result="alphaNoise" />
<feComponentTransfer in="alphaNoise" result="coloredNoise1">
<feFuncA type="discrete" tableValues="1 1 1 1 1 1 1 1 1 1 1 1 1 1 1 1 1 1 1 1 1 1 1 1 1 1 1 1 1 1 1 1 1 1 1 1 1 1 1 1 1 1 1 1 1 1 1 1 1 1 1 0 0 0 0 0 0 0 0 0 0 0 0 0 0 0 0 0 0 0 0 0 0 0 0 0 0 0 0 0 0 0 0 0 0 0 0 0 0 0 0 0 0 0 0 0 0 0 0 0 "/>
</feComponentTransfer>
<feComposite operator="in" in2="shape" in="coloredNoise1" result="noise1Clipped" />
<feFlood flood-color="rgba(131, 123, 123, 0.25)" result="color1Flood" />
<feComposite operator="in" in2="noise1Clipped" in="color1Flood" result="color1" />
<feMerge result="effect1_noise_4729_23886">
<feMergeNode in="shape" />
<feMergeNode in="color1" />
</feMerge>
</filter>
<filter id="filter2_n_4729_23886" x="48.4648" y="-23.1885" width="25.5742" height="50.5811" filterUnits="userSpaceOnUse" color-interpolation-filters="sRGB">
<feFlood flood-opacity="0" result="BackgroundImageFix"/>
<feBlend mode="normal" in="SourceGraphic" in2="BackgroundImageFix" result="shape"/>
<feTurbulence type="fractalNoise" baseFrequency="9.8152894973754883 9.8152894973754883" stitchTiles="stitch" numOctaves="3" result="noise" seed="5092" />
<feColorMatrix in="noise" type="luminanceToAlpha" result="alphaNoise" />
<feComponentTransfer in="alphaNoise" result="coloredNoise1">
<feFuncA type="discrete" tableValues="1 1 1 1 1 1 1 1 1 1 1 1 1 1 1 1 1 1 1 1 1 1 1 1 1 1 1 1 1 1 1 1 1 1 1 1 1 1 1 1 1 1 1 1 1 1 1 1 1 1 1 0 0 0 0 0 0 0 0 0 0 0 0 0 0 0 0 0 0 0 0 0 0 0 0 0 0 0 0 0 0 0 0 0 0 0 0 0 0 0 0 0 0 0 0 0 0 0 0 0 "/>
</feComponentTransfer>
<feComposite operator="in" in2="shape" in="coloredNoise1" result="noise1Clipped" />
<feFlood flood-color="rgba(131, 123, 123, 0.25)" result="color1Flood" />
<feComposite operator="in" in2="noise1Clipped" in="color1Flood" result="color1" />
<feMerge result="effect1_noise_4729_23886">
<feMergeNode in="shape" />
<feMergeNode in="color1" />
</feMerge>
</filter>
<linearGradient id="paint0_linear_4729_23886" x1="23.1324" y1="-24.4261" x2="48.7727" y2="29.4015" gradientUnits="userSpaceOnUse">
<stop stop-color="#F0F0F0"/>
<stop offset="1" stop-color="#686868"/>
</linearGradient>
<linearGradient id="paint1_linear_4729_23886" x1="18.8317" y1="-19.7364" x2="47.2153" y2="22.6162" gradientUnits="userSpaceOnUse">
<stop stop-color="#F2F2F2"/>
<stop offset="0.226398" stop-color="#D4D4D4"/>
<stop offset="0.730106" stop-color="#404040"/>
<stop offset="1" stop-color="#343434"/>
</linearGradient>
<linearGradient id="paint2_linear_4729_23886" x1="27.552" y1="-3.88183" x2="49.3923" y2="24.072" gradientUnits="userSpaceOnUse">
<stop stop-color="#D0CFCF"/>
<stop offset="0.270601" stop-color="#D6D6D6"/>
<stop offset="1" stop-color="#888888"/>
</linearGradient>
<radialGradient id="paint3_radial_4729_23886" cx="0" cy="0" r="1" gradientUnits="userSpaceOnUse" gradientTransform="translate(26.8085 -2.07767) rotate(84.8056) scale(26.2575 19.5917)">
<stop stop-color="#DBDBDB"/>
<stop offset="1" stop-color="#CBCBCA" stop-opacity="0"/>
</radialGradient>
<linearGradient id="paint4_linear_4729_23886" x1="34.474" y1="-2.00676" x2="35.9228" y2="14.1761" gradientUnits="userSpaceOnUse">
<stop stop-color="#C8C8C8"/>
<stop offset="1" stop-color="#828282"/>
</linearGradient>
<radialGradient id="paint5_radial_4729_23886" cx="0" cy="0" r="1" gradientTransform="matrix(11.0373 25.6402 -21.7351 9.35604 24.0866 -6.31801)" gradientUnits="userSpaceOnUse">
<stop stop-color="white"/>
<stop offset="1" stop-color="#A5A5A5" stop-opacity="0"/>
</radialGradient>
<radialGradient id="paint6_radial_4729_23886" cx="0" cy="0" r="1" gradientUnits="userSpaceOnUse" gradientTransform="translate(73.8889 -10.3896) rotate(-152.21) scale(14.2037 63.2431)">
<stop stop-color="#3A3A3A"/>
<stop offset="1" stop-color="white"/>
</radialGradient>
<radialGradient id="paint7_radial_4729_23886" cx="0" cy="0" r="1" gradientUnits="userSpaceOnUse" gradientTransform="translate(56.2294 -14.8045) rotate(101.541) scale(33.1016 37.4702)">
<stop stop-color="white"/>
<stop offset="1" stop-color="#292929" stop-opacity="0.75"/>
</radialGradient>
<linearGradient id="paint8_linear_4729_23886" x1="77.4261" y1="-20.1163" x2="42.8135" y2="18.6002" gradientUnits="userSpaceOnUse">
<stop stop-color="#696969"/>
<stop offset="0.269894" stop-color="#868685"/>
<stop offset="0.773602" stop-color="#BBB9B9"/>
</linearGradient>
<linearGradient id="paint9_linear_4729_23886" x1="68.7058" y1="-4.26074" x2="48.7612" y2="23.8642" gradientUnits="userSpaceOnUse">
<stop stop-color="#8A8888"/>
<stop offset="0.270601" stop-color="#666565"/>
<stop offset="1" stop-color="#424141"/>
</linearGradient>
<radialGradient id="paint10_radial_4729_23886" cx="0" cy="0" r="1" gradientUnits="userSpaceOnUse" gradientTransform="translate(69.4799 -2.24167) rotate(95.3041) scale(26.0463 19.4341)">
<stop stop-color="#898887"/>
<stop offset="1" stop-color="#646060" stop-opacity="0"/>
</radialGradient>
<linearGradient id="paint11_linear_4729_23886" x1="48.7549" y1="12.9971" x2="61.029" y2="-4.08997" gradientUnits="userSpaceOnUse">
<stop stop-color="#3B3B3B"/>
<stop offset="1" stop-color="#484848" stop-opacity="0"/>
</linearGradient>
<linearGradient id="paint12_linear_4729_23886" x1="48.9292" y1="11.979" x2="60.8629" y2="-4.0918" gradientUnits="userSpaceOnUse">
<stop stop-color="#DEDEDE"/>
<stop offset="1" stop-color="#999999"/>
</linearGradient>
</defs>
</svg>
